<svg width="138" height="141" viewBox="0 0 138 141" fill="none" xmlns="http://www.w3.org/2000/svg">
<path fill-rule="evenodd" clip-rule="evenodd" d="M2.56499e-05 72.0028L0.0642194 72.0028C0.0893192 62.5895 1.86721 53.2714 5.2985 44.5734C8.75434 35.813 13.8196 27.8532 20.2052 21.1484C26.5908 14.4435 34.1716 9.12496 42.5147 5.49632C50.8578 1.86768 59.8 3.73188e-05 68.8305 3.65293e-05C77.8611 3.57399e-05 86.8032 1.86766 95.1464 5.49631C103.49 9.12494 111.07 14.4435 117.456 21.1484C123.841 27.8532 128.907 35.813 132.363 44.5733C135.575 52.7172 137.339 61.4047 137.571 70.205C137.588 70.8711 137.597 71.5378 137.597 72.205L137.533 72.205L137.533 140.769L3.16616e-05 140.769L2.56499e-05 72.0028ZM2.00003 138.769L135.533 138.769L135.533 70.205L135.57 70.205C135.338 61.6545 133.622 53.2162 130.502 45.3073C127.139 36.7824 122.212 29.0427 116.008 22.5277C109.803 16.0129 102.442 10.8505 94.3487 7.33036C86.2553 3.81034 77.5845 2.00004 68.8305 2.00004C60.0765 2.00004 51.4058 3.81036 43.3124 7.33036C35.2187 10.8505 27.8581 16.0128 21.6535 22.5277C15.4487 29.0427 10.5219 36.7825 7.15897 45.3073C3.81986 53.7716 2.08865 62.8425 2.06422 72.0081L2.05889 74.0028L2.00003 74.0028L2.00003 138.769Z" fill="white"/>
</svg>
