<svg width="138" height="138" viewBox="0 0 138 138" fill="none" xmlns="http://www.w3.org/2000/svg">
<path fill-rule="evenodd" clip-rule="evenodd" d="M31.9457 68.977L2.91651 86.0913L21.4367 118.81L50.5121 101.708L50.5285 135.954H87.5107L87.5271 101.708L116.602 118.81L135.123 86.0913L106.093 68.977L135.123 51.8627L116.602 19.1444L87.5271 36.2463L87.5107 2H50.5285L50.5121 36.2463L21.4367 19.1444L2.91652 51.8627L31.9457 68.977ZM0.208008 52.5876L20.6979 16.3895L48.5137 32.7506L48.5294 0H89.5098L89.5255 32.7506L117.341 16.3895L137.831 52.5876L110.031 68.977L137.831 85.3664L117.341 121.565L89.5255 105.203L89.5098 137.954H48.5294L48.5137 105.203L20.6981 121.565L0.208008 85.3664L28.0077 68.977L0.208008 52.5876Z" fill="white"/>
</svg>
